# xmcd
#
# Track frame offsets:
#        150
#        14202
#        24655
#        41766
#        55778
#        79577
#        90666
#        107293
#        121017
#        134216
#        147779
#        159521
#        172725
#        194581
#        203817
#        216313
#
# Disc length: 3096 seconds
#
# Revision: 14
# Processed by: cddbd v1.5.2PL0 Copyright (c) Steve Scherf et al.
# Submitted via: ExactAudioCopy v0.99pb5
#
DISCID=dd0c1610
DTITLE=Eric Clapton & Friends / The Breeze - An Appreciation of JJ Cal
DTITLE=e
DYEAR=2014
DGENRE=Rock
TTITLE0=Call Me the Breeze (Vocals - Eric Clapton)
TTITLE1=Rock and Roll Records (Vocals - Eric Clapton & Tom Petty)
TTITLE2=Someday (Vocals - Mark Knopfler)
TTITLE3=Lies (Vocals - Eric Clapton & John Mayer)
TTITLE4=Sensitive Kind (Vocals - Don White)
TTITLE5=Cajun Moon (Vocals - Eric Clapton)
TTITLE6=Magnolia (Vocals - John Mayer & Eric Clapton)
TTITLE7=I Got the Same Old Blues (Vocals - Eric Clapton & Tom Petty)
TTITLE8=Songbird (Vocals - Willie Nelson & Eric Clapton)
TTITLE9=Since You Said Goodbye (Vocals - Eric Clapton)
TTITLE10=I'll Be There (If You Ever Want Me) (Vocals - Eric Clapton & Don White)
TTITLE11=The Old Man and Me (Vocals - Tom Petty)
TTITLE12=Train to Nowhere (Vocals - Eric Clapton, Mark Knopfler & Don White)
TTITLE13=Starbound (Vocals - Willie Nelson)
TTITLE14=Don't Wait (Vocals - Eric Clapton & John Mayer)
TTITLE15=Crying Eyes (Vocals - Eric Clapton & Christine Lakeland)
EXTD=
EXTT0=
EXTT1=
EXTT2=
EXTT3=
EXTT4=
EXTT5=
EXTT6=
EXTT7=
EXTT8=
EXTT9=
EXTT10=
EXTT11=
EXTT12=
EXTT13=
EXTT14=
EXTT15=
PLAYORDER=
.
